<svg width="18" height="14" viewBox="0 0 18 14" fill="none" xmlns="http://www.w3.org/2000/svg">
<path d="M16.611 0.234254C16.5367 0.226603 16.4619 0.226603 16.3876 0.234254H1.13442C1.03666 0.23576 0.939552 0.250419 0.845703 0.277835L8.71744 8.11688L16.611 0.234254Z" fill="#A7A7A7"/>
<path d="M17.4176 0.991211L9.48597 8.89018C9.28183 9.0931 9.00569 9.207 8.71786 9.207C8.43003 9.207 8.15389 9.0931 7.94975 8.89018L0.0889142 1.05113C0.0647485 1.13995 0.0519354 1.23147 0.0507812 1.32351V12.2186C0.0507812 12.5076 0.165569 12.7847 0.369892 12.989C0.574216 13.1934 0.851338 13.3082 1.14029 13.3082H16.3935C16.6824 13.3082 16.9596 13.1934 17.1639 12.989C17.3682 12.7847 17.483 12.5076 17.483 12.2186V1.32351C17.4787 1.21002 17.4566 1.09789 17.4176 0.991211ZM2.04343 12.0631C1.94298 12.1627 1.80723 12.2186 1.66575 12.2186C1.36953 12.2186 1.1294 11.9785 1.1294 11.6823V11.6688C1.1294 11.5221 1.18796 11.3816 1.29207 11.2783L4.70573 7.89282C4.91809 7.68222 5.26076 7.68293 5.47224 7.89441C5.68497 8.10714 5.68426 8.45225 5.47065 8.6641L2.04343 12.0631ZM16.3788 11.6774C16.3809 11.9757 16.1396 12.2186 15.8413 12.2186C15.6995 12.2186 15.5634 12.1626 15.4628 12.0628L12.0359 8.6641C11.8223 8.45225 11.8216 8.10714 12.0343 7.89441C12.2458 7.68293 12.5884 7.68222 12.8008 7.89282L16.2164 11.2802C16.3193 11.3823 16.3777 11.521 16.3787 11.666L16.3788 11.6774Z" fill="#A7A7A7"/>
</svg>
