<svg width="35" height="36" viewBox="0 0 35 36" fill="none" xmlns="http://www.w3.org/2000/svg">
<path fill-rule="evenodd" clip-rule="evenodd" d="M17.4374 35.4378C26.9449 35.4378 34.6522 27.5656 34.6522 17.8547C34.6522 8.14374 26.9449 0.271484 17.4374 0.271484C7.92998 0.271484 0.222656 8.14374 0.222656 17.8547C0.222656 27.5656 7.92998 35.4378 17.4374 35.4378ZM23.8959 13.0461C24.5929 12.9608 25.2559 12.7721 25.873 12.4928L25.8715 12.495C25.4095 13.2008 24.8282 13.8168 24.1546 14.3143C24.1613 14.4653 24.165 14.6178 24.165 14.7688C24.165 19.416 20.7023 24.7743 14.3684 24.7743C12.4972 24.7764 10.6651 24.2279 9.09128 23.1943C9.36406 23.227 9.63849 23.2434 9.91315 23.2434C11.4637 23.2457 12.9699 22.7152 14.1895 21.7373C13.4711 21.7239 12.7747 21.4813 12.1979 21.0435C11.6212 20.6057 11.1929 19.9947 10.973 19.296C11.4891 19.3964 12.0209 19.3758 12.528 19.2356C11.7487 19.0747 11.0479 18.6434 10.5445 18.0149C10.041 17.3863 9.76601 16.5992 9.76607 15.7872V15.7419C10.2442 16.0133 10.7788 16.1642 11.3255 16.182C10.8541 15.8604 10.4677 15.425 10.2006 14.9143C9.93342 14.4036 9.79382 13.8335 9.79415 13.2545C9.79415 12.6113 9.96414 12.0074 10.2598 11.4865C11.1244 12.5729 12.203 13.4615 13.4256 14.0946C14.6482 14.7277 15.9875 15.0911 17.3565 15.1614C17.1832 14.407 17.2586 13.6153 17.5709 12.9092C17.8833 12.2032 18.4152 11.6221 19.0839 11.2564C19.7527 10.8907 20.521 10.7607 21.2695 10.8867C22.018 11.0126 22.7048 11.3875 23.2234 11.953C23.9945 11.7984 24.734 11.5099 25.4096 11.1C25.1531 11.9149 24.6151 12.6066 23.8959 13.0461Z" fill="white"/>
</svg>
