<svg width="36" height="36" viewBox="0 0 36 36" fill="none" xmlns="http://www.w3.org/2000/svg">
<path fill-rule="evenodd" clip-rule="evenodd" d="M18.4172 35.4378C28.1281 35.4378 36.0003 27.5656 36.0003 17.8547C36.0003 8.14374 28.1281 0.271484 18.4172 0.271484C8.70624 0.271484 0.833984 8.14374 0.833984 17.8547C0.833984 27.5656 8.70624 35.4378 18.4172 35.4378ZM26.3 12.5329C26.5758 12.7943 26.7757 13.1257 26.8782 13.4916V13.4909C27.1488 14.8622 27.2753 16.258 27.2557 17.6557C27.2647 19.0474 27.138 20.4367 26.8775 21.8039C26.7753 22.1698 26.5757 22.5012 26.3 22.7626C26.0164 23.0321 25.6687 23.2249 25.2899 23.3227C22.9335 23.586 20.5632 23.7045 18.1923 23.6775C18.1923 23.6775 12.5404 23.6775 11.1038 23.3046C10.7203 23.2027 10.3715 23.0102 10.0914 22.7437C9.81137 22.4772 9.60981 22.1473 9.50639 21.7857C9.25199 20.4164 9.12894 19.0281 9.138 17.6383C9.12916 16.2473 9.25251 14.8586 9.50639 13.4909C9.61208 13.1278 9.81439 12.7964 10.0937 12.5276C10.378 12.2561 10.7249 12.059 11.1038 11.9539C13.4571 11.6906 15.8244 11.5721 18.1923 11.5991C18.1923 11.5991 23.8722 11.5991 25.2899 11.9728C25.6687 12.0706 26.0164 12.2634 26.3 12.5329ZM16.3866 15.0543V20.2231L21.1123 17.6391L16.3866 15.0543Z" fill="white"/>
</svg>
