<svg width="36" height="36" viewBox="0 0 36 36" fill="none" xmlns="http://www.w3.org/2000/svg">
<path fill-rule="evenodd" clip-rule="evenodd" d="M17.8261 35.4378C27.3336 35.4378 35.0409 27.5656 35.0409 17.8547C35.0409 8.14374 27.3336 0.271484 17.8261 0.271484C8.31865 0.271484 0.611328 8.14374 0.611328 17.8547C0.611328 27.5656 8.31865 35.4378 17.8261 35.4378ZM18.4573 18.7182V25.9377H15.5731V18.7129H13.1758V15.8862H15.5679V13.8118C15.5679 11.3991 17.0291 10.0849 19.1574 10.0849C19.875 10.0821 20.5922 10.1194 21.3057 10.1968V12.7169H19.8393C18.6819 12.7169 18.4573 13.2754 18.4573 14.0911V15.8915H21.223L20.8651 18.7182H18.4573Z" fill="white"/>
</svg>
