<svg width="35" height="36" viewBox="0 0 35 36" fill="none" xmlns="http://www.w3.org/2000/svg">
<path d="M17.2148 0.271484C7.7072 0.271484 0 8.14362 0 17.8547C0 27.5657 7.7072 35.4378 17.2148 35.4378C26.7224 35.4378 34.4296 27.5657 34.4296 17.8547C34.4296 8.14362 26.7224 0.271484 17.2148 0.271484ZM13.0007 25.1425H9.51475V13.6842H13.0007V25.1425ZM11.2362 12.2775C10.1352 12.2775 9.4233 11.4808 9.4233 10.4954C9.4233 9.48983 10.1567 8.7169 11.2811 8.7169C12.4054 8.7169 13.094 9.48983 13.1155 10.4954C13.1155 11.4808 12.4054 12.2775 11.2362 12.2775ZM25.7325 25.1425H22.2465V18.7924C22.2465 17.3143 21.7408 16.3106 20.4802 16.3106C19.5173 16.3106 18.9452 16.9902 18.6924 17.644C18.5991 17.8766 18.5758 18.2063 18.5758 18.5342V25.1407H15.088V17.3382C15.088 15.9077 15.0432 14.7117 14.9966 13.6823H18.0253L18.1849 15.274H18.2548C18.7139 14.5267 19.8382 13.4241 21.7193 13.4241C24.0128 13.4241 25.7325 14.9937 25.7325 18.3675V25.1425Z" fill="white"/>
</svg>
